<?xml version="1.0" encoding="UTF-8"?>
<svg id="katman_1" xmlns="http://www.w3.org/2000/svg" version="1.1" xmlns:xlink="http://www.w3.org/1999/xlink" viewBox="0 0 1920 1080">
  <!-- Generator: Adobe Illustrator 29.8.2, SVG Export Plug-In . SVG Version: 2.1.1 Build 3)  -->
  <defs>
    <style>
      .st0 {
        fill: url(#Turuncu_Sarı8);
      }

      .st1 {
        fill: url(#Turuncu_Sarı4);
      }

      .st2 {
        fill: url(#Turuncu_Sarı3);
      }

      .st3 {
        stroke: #1d1d1b;
        stroke-miterlimit: 10;
        stroke-width: .25px;
      }

      .st3, .st4 {
        fill: #1d1d1b;
      }

      .st5 {
        fill: url(#Turuncu_Sarı5);
      }

      .st6 {
        fill: url(#Turuncu_Sarı7);
      }

      .st7 {
        fill: url(#Beyaz_Siyah_2);
      }

      .st8 {
        fill: url(#Turuncu_Sarı13);
      }

      .st9 {
        fill: #fff;
      }

      .st10 {
        fill: url(#Turuncu_Sarı16);
      }

      .st11 {
        fill: url(#Turuncu_Sarı11);
      }

      .st12 {
        fill: url(#Turuncu_Sarı);
      }

      .st13 {
        fill: url(#Turuncu_Sarı14);
      }

      .st14 {
        fill: url(#Turuncu_Sarı18);
      }

      .st15 {
        fill: url(#Turuncu_Sarı15);
      }

      .st16 {
        fill: url(#Turuncu_Sarı6);
      }

      .st17 {
        fill: url(#Turuncu_Sarı1);
      }

      .st18 {
        fill: url(#Turuncu_Sarı9);
      }

      .st19 {
        fill: url(#Turuncu_Sarı10);
      }

      .st20 {
        fill: url(#Turuncu_Sarı2);
      }

      .st21 {
        fill: url(#Turuncu_Sarı12);
      }

      .st22 {
        fill: url(#Turuncu_Sarı17);
      }
    </style>
    <linearGradient id="Beyaz_Siyah_2" data-name="Beyaz, Siyah 2" x1="843.45" y1="488.65" x2="1372.61" y2="488.65" gradientTransform="translate(246.52 372.35) rotate(-6.36)" gradientUnits="userSpaceOnUse">
      <stop offset="0" stop-color="#fff"/>
      <stop offset="1" stop-color="#1d1d1b"/>
    </linearGradient>
    <linearGradient id="Turuncu_Sarı" data-name="Turuncu, Sarı" x1="561.27" y1="280.51" x2="627.93" y2="280.51" gradientTransform="translate(956.38 -322.66) rotate(51.84)" gradientUnits="userSpaceOnUse">
      <stop offset="0" stop-color="#ffef26"/>
      <stop offset=".02" stop-color="#fee921"/>
      <stop offset=".1" stop-color="#fdd70e"/>
      <stop offset=".19" stop-color="#fdcb03"/>
      <stop offset=".28" stop-color="#fdc800"/>
      <stop offset=".67" stop-color="#f18f34"/>
      <stop offset=".89" stop-color="#e95f32"/>
      <stop offset="1" stop-color="#e3312d"/>
    </linearGradient>
    <linearGradient id="Turuncu_Sarı1" data-name="Turuncu, Sarı" x1="587.51" y1="439.75" x2="655.16" y2="439.75" gradientTransform="translate(869.2 -139.74) rotate(44.78)" xlink:href="#Turuncu_Sarı"/>
    <linearGradient id="Turuncu_Sarı2" data-name="Turuncu, Sarı" x1="622.83" y1="350.22" x2="667.59" y2="350.22" gradientTransform="translate(869.2 -139.74) rotate(44.78)" xlink:href="#Turuncu_Sarı"/>
    <linearGradient id="Turuncu_Sarı3" data-name="Turuncu, Sarı" x1="716.78" y1="162.16" x2="761.54" y2="162.16" gradientTransform="translate(869.2 -139.74) rotate(44.78)" xlink:href="#Turuncu_Sarı"/>
    <linearGradient id="Turuncu_Sarı4" data-name="Turuncu, Sarı" x1="742.72" y1="466.77" x2="809.37" y2="466.77" gradientTransform="translate(908.7 -169.74) rotate(40.39)" xlink:href="#Turuncu_Sarı"/>
    <linearGradient id="Turuncu_Sarı5" data-name="Turuncu, Sarı" x1="431.75" y1="714.77" x2="462.61" y2="714.77" gradientTransform="translate(1082.3 -354.55) rotate(52.24)" xlink:href="#Turuncu_Sarı"/>
    <linearGradient id="Turuncu_Sarı6" data-name="Turuncu, Sarı" x1="767.58" y1="316.28" x2="783.16" y2="316.28" gradientTransform="translate(1082.3 -354.55) rotate(52.24)" xlink:href="#Turuncu_Sarı"/>
    <linearGradient id="Turuncu_Sarı7" data-name="Turuncu, Sarı" x1="774.17" y1="390.39" x2="816.18" y2="390.39" gradientTransform="translate(908.7 -169.74) rotate(40.39)" xlink:href="#Turuncu_Sarı"/>
    <linearGradient id="Turuncu_Sarı8" data-name="Turuncu, Sarı" x1="584.14" y1="211.39" x2="626.14" y2="211.39" xlink:href="#Turuncu_Sarı"/>
    <linearGradient id="Turuncu_Sarı9" data-name="Turuncu, Sarı" x1="279.37" y1="451.44" x2="347.02" y2="451.44" gradientTransform="translate(869.2 -139.74) rotate(44.78)" xlink:href="#Turuncu_Sarı"/>
    <linearGradient id="Turuncu_Sarı10" data-name="Turuncu, Sarı" x1="314.69" y1="361.91" x2="359.45" y2="361.91" gradientTransform="translate(869.2 -139.74) rotate(44.78)" xlink:href="#Turuncu_Sarı"/>
    <linearGradient id="Turuncu_Sarı11" data-name="Turuncu, Sarı" x1="417.36" y1="266.34" x2="484.01" y2="266.34" gradientTransform="translate(908.7 -169.74) rotate(40.39)" xlink:href="#Turuncu_Sarı"/>
    <linearGradient id="Turuncu_Sarı12" data-name="Turuncu, Sarı" x1="73.05" y1="730.25" x2="103.91" y2="730.25" gradientTransform="translate(1082.3 -354.55) rotate(52.24)" xlink:href="#Turuncu_Sarı"/>
    <linearGradient id="Turuncu_Sarı13" data-name="Turuncu, Sarı" x1="394.57" y1="301.02" x2="410.15" y2="301.02" gradientTransform="translate(1082.3 -354.55) rotate(52.24)" xlink:href="#Turuncu_Sarı"/>
    <linearGradient id="Turuncu_Sarı14" data-name="Turuncu, Sarı" x1="448.81" y1="189.96" x2="490.82" y2="189.96" gradientTransform="translate(908.7 -169.74) rotate(40.39)" xlink:href="#Turuncu_Sarı"/>
    <linearGradient id="Turuncu_Sarı15" data-name="Turuncu, Sarı" x1="-127.41" y1="446.8" x2="-59.76" y2="446.8" gradientTransform="translate(869.2 -139.74) rotate(44.78)" xlink:href="#Turuncu_Sarı"/>
    <linearGradient id="Turuncu_Sarı16" data-name="Turuncu, Sarı" x1="-9.14" y1="510.96" x2="35.62" y2="510.96" gradientTransform="translate(869.2 -139.74) rotate(44.78)" xlink:href="#Turuncu_Sarı"/>
    <linearGradient id="Turuncu_Sarı17" data-name="Turuncu, Sarı" x1="113.77" y1="277.22" x2="180.42" y2="277.22" gradientTransform="translate(908.7 -169.74) rotate(40.39)" xlink:href="#Turuncu_Sarı"/>
    <linearGradient id="Turuncu_Sarı18" data-name="Turuncu, Sarı" x1="53.23" y1="238.22" x2="95.24" y2="238.22" gradientTransform="translate(908.7 -169.74) rotate(40.39)" xlink:href="#Turuncu_Sarı"/>
  </defs>
  <rect class="st4" width="1920" height="1080"/>
  <g>
    <ellipse class="st9" cx="1255.84" cy="621.31" rx="504.05" ry="506.36" transform="translate(-23.86 1191.86) rotate(-50.35)"/>
    <path class="st3" d="M1759.84,565.53c-31.03-278.29-281.78-478.74-560.07-447.71-27.24,3.04-52.09,5.45-77.25,11.79,3.45,3.1,6.83,6.27,10.26,9.38l389.48,316.81-364.59,460.77-405.79-336.73c-4.35,37.48-4.18,58.95.18,98.05,31.03,278.29,281.78,478.74,560.07,447.71,278.29-31.03,478.74-281.78,447.71-560.07Z"/>
    <path class="st7" d="M1671.77,883.16c-2.8,4.47-5.67,8.89-8.58,13.26l-90.34-72.01c-1.26-9.74-5.34-17.41-12.22-23.03,11.98-10.11,10.3-20.52,5.72-34.29l8.87-10.48c.11-.57.22-1.13.39-1.69,2.2-7.37,5.32-14.6,9.46-21.1,5.6-13.53,11.8-34.8,6.76-39.86l-4.71-.86c-5.03-9.27-12.79-15.27-19.39-18.99,17.77-23.69,38.02-45.68,55.58-69.51,3.35-4.55,4.38-10.71,7.56-13.92,1.58-4.18,3.02-8.44,4.58-12.63-1.76-16.31-.39-30.66-13.12-45.41-13.82-16.01-38.85-31.41-55.4-44.45-17.47-13.77-41.01-46.23-63.08-26.72-115.69,146.33-234.72,290.43-348.32,438.16-2.15,10.61.71,16.12,7.49,23.41,11.64,12.51,83.56,68.51,97.53,72.99,60.7,19.49,83.29-53.96,119.71-84.78,1.49.17,2.87.72,4.17,1.44,4.98,6.78,11.34,11.38,16.8,14.41,7.69,6.7,22.23-1.54,29.99-9.33,17.49-4.66,27.14-12.04,36.89-27.99,15.88.58,27.54-4.78,35-16.1,5.99,6.37,14.44,8.8,25.36,7.3l83.9,67.39c-.1,0-.19,0-.29,0,1.66,1.87,2.68,4.29,3.02,6.8.32.84.57,1.72.72,2.65.46,2.95-.71,6.5-2.54,8.79-1.24,1.56-3.05,2.86-5,3.65-.17.59-.39,1.17-.66,1.73.03.03.05.05.08.08-1.47,7.21,2.49,8.54,8.1,4.42,27.38-26.17,50.6-55.45,69.5-86.89-4.47-2.25-8.99-4.42-13.55-6.47ZM1590.54,613.05c2.42-2.54,3.23-6.19,7.8-5.65-18.01,20.71-33.39,48.27-51.34,68.27-8.4,9.35-11.02.87-4.23-5.55,17.31-17.1,31.4-39.82,47.78-57.06ZM1569.03,625.1c-10.18,13.68-18.27,29.54-30.22,41.85-7.89,8.13-12.23,6.34-5.72-2.49,6.96-9.44,20.07-25.23,28.14-33.71,2.42-2.54,3.22-6.19,7.8-5.65ZM1522.42,660.36c1.62-3.19,22.33-26.66,23.61-25.49,2.33,2.12-19.87,30.91-21.76,31.25-1.99.36-3.83-1.86-1.86-5.76ZM1200.63,876.15l-5.41-4.33,293.52-367.19,5.41,4.33-293.52,367.19ZM1362.72,879.09c2.43-2.52,3.2-6.19,7.78-5.66,1.52,4.35-1.89,5.92-3.81,8.84-9.43,14.35-23.03,25.77-34.17,38.7-1.54-4.34,1.85-5.93,3.8-8.85,6.21-9.31,18.67-25.01,26.4-33.02ZM1356.65,867.73c3.37-2.78,5.94-1.49,6.03.54.08,1.92-23.11,29.91-25.69,28.11-1.7-1.18,16.84-26.32,19.67-28.65ZM1273.4,920.41c-11.66,2.57-24.88-12.62-22.66-24.7.81-4.41,28.42-37.44,33.06-38.71,8.89-2.44,26.26,10.94,24.32,21.66-.69,3.79-31.26,40.99-34.72,41.76ZM1328.02,945.53c-4.09,4.89-7.33,15.09-15.05,16.09,2.77-7.42,10.26-12.72,14.78-18.47,15.85-20.13,30.14-41.59,46.02-61.73l7.39,1.63c-17.59,20.92-35.64,41.51-53.15,62.48ZM1417.89,910.25s0-.01,0-.02c0,0,0,0,0,0,0,0,0,0,0,0ZM1421.37,896.53l-3.96,2.58c-5.88-4.51-14.66-10.31-19.76-13.62-.54-.87-1.19-1.8-2.04-2.84l-.79-6.59c-19.79-10.8-29.21-24.47-28.25-41.01l120.6-152.87c15.88-12.27,33.7-7.28,53.45,14.98l4.94-2.08c2.04,1.26,4.06,1.85,5.77,1.86,5.61,3.25,9.69,6.55,12.7,9.73-.17,1.42.64,3.29,2.67,5.3l-2.19,5.11c8.71,13.2-1.62,27.29-10.45,37.32-20.32-16.72-32.71-25.53-55.79-6.17-10.75,9.02-65.56,78.8-68.3,89.72-4.25,16.91,13.15,31.36,25.53,39.53.33,5.04-25.56,28.41-34.12,19.05ZM1490.41,868.56c-7.09,15.83-37.88-9.94-43.02-16.82-2.89-3.86-4.03-6.32-3.13-11.3,2.15-11.9,61.44-72.86,70.83-88.61,8.18-6.3,38.22,20.51,39.63,25.36.83,2.84,1.05,6.04.5,8.95-2.32,12.44-56.79,65.92-64.82,82.42ZM1525.89,864.53c-6.09,3.73-16.91-1.71-17.31-5.3-.34-3.1,35.22-41.63,39-48.79,5.99,4.26,11.84,7.31,8.99,15.72-.79,2.33-28.58,37.09-30.68,38.38ZM1649.89,924.73l-34.33-27.44-63.39-50.67,2.21-2.77,62.07,49.62,35.65,28.5-2.21,2.77ZM1652.8,918.39l-97.72-78.12,3.25-4.06,97.72,78.12-3.25,4.06Z"/>
    <path class="st4" d="M1283.8,856.99c-4.64,1.27-32.25,34.31-33.06,38.71-2.22,12.09,11,27.28,22.66,24.7,3.46-.76,34.03-37.96,34.72-41.76,1.94-10.72-15.43-24.1-24.32-21.66ZM1286.25,894.84c-7.09-1.54-12.75-6.06-15.82-12.65,2.5-2.88,18.11,9.64,15.82,12.65Z"/>
    <path class="st12" d="M1122.01,267.75s-23.94,49.83-58.54,39.24c0,0,29.25,14.01,20.76,61.58,0,0,27.06-36.32,50.32-32.65,0,0-25.52-3.57-12.54-68.16Z"/>
    <path class="st17" d="M1013.14,556.9s-17.89,53.18-54.07,46.83c0,0,31.21,10.47,28.59,59.44,0,0,22.73-39.96,46.61-39.17,0,0-26.16-.41-21.13-67.1Z"/>
    <path class="st20" d="M1088.85,528.17s-11.84,35.18-35.77,30.98c0,0,20.65,6.93,18.91,39.32,0,0,15.04-26.44,30.84-25.91,0,0-17.3-.27-13.98-44.39Z"/>
    <path class="st2" d="M1288.01,460.86s-11.84,35.18-35.77,30.98c0,0,20.65,6.93,18.91,39.32,0,0,15.04-26.44,30.84-25.91,0,0-17.3-.27-13.98-44.39Z"/>
    <path class="st1" d="M1205.74,635.47s-13.57,53.59-49.58,50.08c0,0,31.45,7.93,32.57,56.23,0,0,19.31-40.97,42.83-41.99,0,0-25.72,1.57-25.82-64.32Z"/>
    <path class="st5" d="M799.97,413.4s-11.24,23-27.23,17.98c0,0,13.5,6.58,9.41,28.58,0,0,12.64-16.73,23.4-14.96,0,0-11.81-1.74-5.59-31.6Z"/>
    <path class="st16" d="M1311.58,440.35s-5.67,11.61-13.75,9.08c0,0,6.81,3.32,4.75,14.43,0,0,6.38-8.45,11.81-7.55,0,0-5.96-.88-2.82-15.95Z"/>
    <path class="st6" d="M1266.67,609.36s-8.55,33.77-31.25,31.56c0,0,19.82,5,20.53,35.44,0,0,12.17-25.82,27-26.47,0,0-16.21.99-16.27-40.54Z"/>
    <path class="st0" d="M1175.9,251.98s-15.09,31.4-36.89,24.73c0,0,18.43,8.83,13.08,38.81,0,0,17.05-22.89,31.71-20.58,0,0-16.09-2.25-7.9-42.96Z"/>
    <polygon class="st9" points="1375.57 340.28 754.27 581.67 -1.01 -.85 943.03 -20.43 1375.57 340.28"/>
    <path class="st18" d="M786.19,348.13s-17.89,53.18-54.07,46.83c0,0,31.21,10.47,28.59,59.44,0,0,22.73-39.96,46.61-39.17,0,0-26.16-.41-21.13-67.1Z"/>
    <path class="st19" d="M861.91,319.4s-11.84,35.18-35.77,30.98c0,0,20.65,6.93,18.91,39.32,0,0,15.04-26.44,30.84-25.91,0,0-17.3-.27-13.98-44.39Z"/>
    <path class="st11" d="M1087.83,271.97s-13.57,53.59-49.58,50.08c0,0,31.45,7.93,32.57,56.23,0,0,19.31-40.97,42.83-41.99,0,0-25.72,1.57-25.82-64.32Z"/>
    <path class="st21" d="M568.07,139.3s-11.24,23-27.23,17.98c0,0,13.5,6.58,9.41,28.58,0,0,12.64-16.73,23.4-14.96,0,0-11.81-1.74-5.59-31.6Z"/>
    <path class="st8" d="M1095.21,136.12s-5.67,11.61-13.75,9.08c0,0,6.81,3.32,4.75,14.43,0,0,6.38-8.45,11.81-7.55,0,0-5.96-.88-2.82-15.95Z"/>
    <path class="st13" d="M1148.76,245.86s-8.55,33.77-31.25,31.56c0,0,19.82,5,20.53,35.44,0,0,12.17-25.82,27-26.47,0,0-16.21.99-16.27-40.54Z"/>
    <path class="st15" d="M500.74,58.29s-17.89,53.18-54.07,46.83c0,0,31.21,10.47,28.59,59.44,0,0,22.73-39.96,46.61-39.17,0,0-26.16-.41-21.13-67.1Z"/>
    <path class="st10" d="M527.07,197.07s-11.84,35.18-35.77,30.98c0,0,20.65,6.93,18.91,39.32,0,0,15.04-26.44,30.84-25.91,0,0-17.3-.27-13.98-44.39Z"/>
    <path class="st22" d="M849.55,83.53s-13.57,53.59-49.58,50.08c0,0,31.45,7.93,32.57,56.23,0,0,19.31-40.97,42.83-41.99,0,0-25.72,1.57-25.82-64.32Z"/>
    <path class="st14" d="M816.2,26.27s-8.55,33.77-31.25,31.56c0,0,19.82,5,20.53,35.44,0,0,12.17-25.82,27-26.47,0,0-16.21.99-16.27-40.54Z"/>
  </g>
</svg>