<?xml version="1.0" encoding="UTF-8"?>
<svg id="katman_2" data-name="katman 2" xmlns="http://www.w3.org/2000/svg" xmlns:xlink="http://www.w3.org/1999/xlink" viewBox="0 0 707.82 304.41">
  <defs>
    <style>
      .cls-1 {
        fill: url(#Turuncu_Sarı-5);
      }

      .cls-2 {
        fill: url(#Turuncu_Sarı-2);
      }

      .cls-3 {
        fill: url(#Beyaz_Siyah_2);
      }

      .cls-4 {
        filter: url(#drop-shadow-12);
      }

      .cls-4, .cls-5, .cls-6, .cls-7, .cls-8, .cls-9, .cls-10, .cls-11, .cls-12, .cls-13, .cls-14, .cls-15, .cls-16, .cls-17 {
        fill: #fff;
      }

      .cls-5, .cls-18 {
        stroke: #1d1d1b;
        stroke-miterlimit: 10;
        stroke-width: .25px;
      }

      .cls-6 {
        filter: url(#drop-shadow-7);
      }

      .cls-7 {
        filter: url(#drop-shadow-13);
      }

      .cls-8 {
        filter: url(#drop-shadow-3);
      }

      .cls-9 {
        filter: url(#drop-shadow-4);
      }

      .cls-19 {
        fill: url(#Turuncu_Sarı);
      }

      .cls-10 {
        filter: url(#drop-shadow-5);
      }

      .cls-11 {
        filter: url(#drop-shadow-10);
      }

      .cls-12 {
        filter: url(#drop-shadow-1);
      }

      .cls-20 {
        fill: url(#Turuncu_Sarı-6);
      }

      .cls-18 {
        opacity: .97;
      }

      .cls-18, .cls-21 {
        fill: #1d1d1b;
      }

      .cls-13 {
        filter: url(#drop-shadow-8);
      }

      .cls-14 {
        filter: url(#drop-shadow-2);
      }

      .cls-15 {
        filter: url(#drop-shadow-6);
      }

      .cls-16 {
        filter: url(#drop-shadow-9);
      }

      .cls-22 {
        fill: url(#Turuncu_Sarı-4);
      }

      .cls-23 {
        fill: url(#Turuncu_Sarı-3);
      }

      .cls-24 {
        fill: url(#Turuncu_Sarı-7);
      }

      .cls-17 {
        filter: url(#drop-shadow-11);
      }

      .cls-25 {
        fill: url(#Turuncu_Sarı-8);
      }
    </style>
    <linearGradient id="Beyaz_Siyah_2" data-name="Beyaz, Siyah 2" x1="-263.87" y1="540.45" x2="-105.15" y2="540.45" gradientTransform="translate(-53.14 -357.63) rotate(-46.01)" gradientUnits="userSpaceOnUse">
      <stop offset="0" stop-color="#fff"/>
      <stop offset="1" stop-color="#1d1d1b"/>
    </linearGradient>
    <linearGradient id="Turuncu_Sarı" data-name="Turuncu, Sarı" x1="204.22" y1="-82.85" x2="224.22" y2="-82.85" gradientTransform="translate(-168.15 147.07) rotate(12.2)" gradientUnits="userSpaceOnUse">
      <stop offset="0" stop-color="#ffef26"/>
      <stop offset=".02" stop-color="#fee921"/>
      <stop offset=".1" stop-color="#fdd70e"/>
      <stop offset=".19" stop-color="#fdcb03"/>
      <stop offset=".28" stop-color="#fdc800"/>
      <stop offset=".67" stop-color="#f18f34"/>
      <stop offset=".89" stop-color="#e95f32"/>
      <stop offset="1" stop-color="#e3312d"/>
    </linearGradient>
    <linearGradient id="Turuncu_Sarı-2" data-name="Turuncu, Sarı" x1="93.6" y1="4.15" x2="113.89" y2="4.15" gradientTransform="translate(-12.08 184.99) rotate(5.14)" xlink:href="#Turuncu_Sarı"/>
    <linearGradient id="Turuncu_Sarı-3" data-name="Turuncu, Sarı" x1="104.19" y1="-22.7" x2="117.62" y2="-22.7" gradientTransform="translate(-12.08 184.99) rotate(5.14)" xlink:href="#Turuncu_Sarı"/>
    <linearGradient id="Turuncu_Sarı-4" data-name="Turuncu, Sarı" x1="88.02" y1="145.69" x2="108.01" y2="145.69" gradientTransform="translate(55.26 31.94) rotate(.75)" xlink:href="#Turuncu_Sarı"/>
    <linearGradient id="Turuncu_Sarı-5" data-name="Turuncu, Sarı" x1="229.71" y1="9.67" x2="238.96" y2="9.67" gradientTransform="translate(-98.04 50.61) rotate(12.59)" xlink:href="#Turuncu_Sarı"/>
    <linearGradient id="Turuncu_Sarı-6" data-name="Turuncu, Sarı" x1="233.13" y1="1.34" x2="237.8" y2="1.34" gradientTransform="translate(-98.04 50.61) rotate(12.59)" xlink:href="#Turuncu_Sarı"/>
    <linearGradient id="Turuncu_Sarı-7" data-name="Turuncu, Sarı" x1="97.45" y1="122.78" x2="110.05" y2="122.78" gradientTransform="translate(55.26 31.94) rotate(.75)" xlink:href="#Turuncu_Sarı"/>
    <linearGradient id="Turuncu_Sarı-8" data-name="Turuncu, Sarı" x1="211.08" y1="-103.58" x2="223.68" y2="-103.58" xlink:href="#Turuncu_Sarı"/>
    <filter id="drop-shadow-1" x="371.82" y="58.21" width="73.68" height="80.4" filterUnits="userSpaceOnUse">
      <feOffset dx="5" dy="3"/>
      <feGaussianBlur result="blur" stdDeviation="4"/>
      <feFlood flood-color="#000" flood-opacity="1"/>
      <feComposite in2="blur" operator="in"/>
      <feComposite in="SourceGraphic"/>
    </filter>
    <filter id="drop-shadow-2" x="415.26" y="71.41" width="70.32" height="68.88" filterUnits="userSpaceOnUse">
      <feOffset dx="5" dy="3"/>
      <feGaussianBlur result="blur-2" stdDeviation="4"/>
      <feFlood flood-color="#000" flood-opacity="1"/>
      <feComposite in2="blur-2" operator="in"/>
      <feComposite in="SourceGraphic"/>
    </filter>
    <filter id="drop-shadow-3" x="461.34" y="54.13" width="75.12" height="84.48" filterUnits="userSpaceOnUse">
      <feOffset dx="5" dy="3"/>
      <feGaussianBlur result="blur-3" stdDeviation="4"/>
      <feFlood flood-color="#000" flood-opacity="1"/>
      <feComposite in2="blur-3" operator="in"/>
      <feComposite in="SourceGraphic"/>
    </filter>
    <filter id="drop-shadow-4" x="512.22" y="52.21" width="65.52" height="86.4" filterUnits="userSpaceOnUse">
      <feOffset dx="5" dy="3"/>
      <feGaussianBlur result="blur-4" stdDeviation="4"/>
      <feFlood flood-color="#000" flood-opacity="1"/>
      <feComposite in2="blur-4" operator="in"/>
      <feComposite in="SourceGraphic"/>
    </filter>
    <filter id="drop-shadow-5" x="555.66" y="71.41" width="72.48" height="67.2" filterUnits="userSpaceOnUse">
      <feOffset dx="5" dy="3"/>
      <feGaussianBlur result="blur-5" stdDeviation="4"/>
      <feFlood flood-color="#000" flood-opacity="1"/>
      <feComposite in2="blur-5" operator="in"/>
      <feComposite in="SourceGraphic"/>
    </filter>
    <filter id="drop-shadow-6" x="313.02" y="176.29" width="73.44" height="80.4" filterUnits="userSpaceOnUse">
      <feOffset dx="5" dy="3"/>
      <feGaussianBlur result="blur-6" stdDeviation="4"/>
      <feFlood flood-color="#000" flood-opacity="1"/>
      <feComposite in2="blur-6" operator="in"/>
      <feComposite in="SourceGraphic"/>
    </filter>
    <filter id="drop-shadow-7" x="353.34" y="189.49" width="70.32" height="68.64" filterUnits="userSpaceOnUse">
      <feOffset dx="5" dy="3"/>
      <feGaussianBlur result="blur-7" stdDeviation="4"/>
      <feFlood flood-color="#000" flood-opacity="1"/>
      <feComposite in2="blur-7" operator="in"/>
      <feComposite in="SourceGraphic"/>
    </filter>
    <filter id="drop-shadow-8" x="399.42" y="189.49" width="82.08" height="67.2" filterUnits="userSpaceOnUse">
      <feOffset dx="5" dy="3"/>
      <feGaussianBlur result="blur-8" stdDeviation="4"/>
      <feFlood flood-color="#000" flood-opacity="1"/>
      <feComposite in2="blur-8" operator="in"/>
      <feComposite in="SourceGraphic"/>
    </filter>
    <filter id="drop-shadow-9" x="461.34" y="170.05" width="65.28" height="86.64" filterUnits="userSpaceOnUse">
      <feOffset dx="5" dy="3"/>
      <feGaussianBlur result="blur-9" stdDeviation="4"/>
      <feFlood flood-color="#000" flood-opacity="1"/>
      <feComposite in2="blur-9" operator="in"/>
      <feComposite in="SourceGraphic"/>
    </filter>
    <filter id="drop-shadow-10" x="505.74" y="190.93" width="68.88" height="65.76" filterUnits="userSpaceOnUse">
      <feOffset dx="5" dy="3"/>
      <feGaussianBlur result="blur-10" stdDeviation="4"/>
      <feFlood flood-color="#000" flood-opacity="1"/>
      <feComposite in2="blur-10" operator="in"/>
      <feComposite in="SourceGraphic"/>
    </filter>
    <filter id="drop-shadow-11" x="547.5" y="172.21" width="65.28" height="84.48" filterUnits="userSpaceOnUse">
      <feOffset dx="5" dy="3"/>
      <feGaussianBlur result="blur-11" stdDeviation="4"/>
      <feFlood flood-color="#000" flood-opacity="1"/>
      <feComposite in2="blur-11" operator="in"/>
      <feComposite in="SourceGraphic"/>
    </filter>
    <filter id="drop-shadow-12" x="591.42" y="170.05" width="65.52" height="86.64" filterUnits="userSpaceOnUse">
      <feOffset dx="5" dy="3"/>
      <feGaussianBlur result="blur-12" stdDeviation="4"/>
      <feFlood flood-color="#000" flood-opacity="1"/>
      <feComposite in2="blur-12" operator="in"/>
      <feComposite in="SourceGraphic"/>
    </filter>
    <filter id="drop-shadow-13" x="632.7" y="172.21" width="75.12" height="84.48" filterUnits="userSpaceOnUse">
      <feOffset dx="5" dy="3"/>
      <feGaussianBlur result="blur-13" stdDeviation="4"/>
      <feFlood flood-color="#000" flood-opacity="1"/>
      <feComposite in2="blur-13" operator="in"/>
      <feComposite in="SourceGraphic"/>
    </filter>
  </defs>
  <g id="katman_1" data-name="katman 1">
    <ellipse class="cls-5" cx="152.25" cy="152.13" rx="152.12" ry="151.19"/>
    <path class="cls-18" d="M257.74,42.79C197.31-15.54,101.03-13.85,42.7,46.58c-5.71,5.91-10.99,11.23-15.59,17.51,1.39.06,2.78.14,4.17.2l150.59-1.37,3.98,176.2-158.05-.11c6.17,9.49,10.2,14.41,18.69,22.61,60.43,58.34,156.71,56.64,215.04-3.79,58.34-60.43,56.64-156.71-3.79-215.04Z"/>
    <path class="cls-3" d="M298.19,133.01c.21,1.57.39,3.14.56,4.7l-34.65.66c-2.16-2.01-4.57-3-7.23-2.98.83-4.63-1.55-6.71-5.24-9.01l.04-4.12c-.08-.15-.17-.3-.23-.47-.9-2.12-1.57-4.39-1.85-6.68-1.3-4.2-3.94-10.3-6.07-10.5l-1.25.7c-2.94-1.18-5.88-1.08-8.11-.68-.43-8.87.04-17.83-.47-26.69-.1-1.69-1.04-3.31-.92-4.66-.44-1.27-.92-2.53-1.36-3.79-3.53-3.43-5.96-7.01-11.72-7.98-6.26-1.05-14.98.18-21.3.34-6.67.16-18.32-2.83-19.68,5.9,1.29,55.94,1.37,112,3.41,167.86,1.53,2.86,3.25,3.59,6.21,3.97,5.08.66,32.41-.17,36.5-1.81,17.75-7.12,8.91-28.4,11.42-42.49.38-.25.8-.38,1.24-.46,2.45.61,4.8.46,6.64.11,3.06.07,4.84-4.61,5.14-7.89,3.15-4.42,3.96-7.98,3.16-13.52,3.78-2.9,5.45-6.38,5-10.42,2.6.32,5.02-.73,7.26-3.17l32.28-.49s-.04.04-.07.05c.74.11,1.44.48,2,.99.23.13.46.29.67.47.67.59,1.08,1.64,1.1,2.52.01.6-.16,1.24-.46,1.8.07.17.13.35.18.52.01,0,.02,0,.03,0,1.04,1.95,2.21,1.5,2.72-.53,1.31-11.28,1.08-22.49-.58-33.37-1.46.34-2.92.7-4.37,1.1ZM227.73,86.17c.07-1.05-.44-2.05.72-2.8-.2,8.23,1.53,17.54,1.21,25.59-.15,3.77-2.38,2.31-2.04-.47.73-7.26-.37-15.21.11-22.32ZM225.07,93.07c.27,5.11,1.43,10.32,1.03,15.45-.27,3.39-1.61,3.8-1.8.52-.2-3.51-.19-9.67.05-13.17.07-1.05-.44-2.05.72-2.8ZM221.05,110.13c-.24-1.05.05-10.43.58-10.41.94.05,1.33,10.94.96,11.38-.39.46-1.24.3-1.53-.98ZM188.03,221.56l-2.08.04-2.48-140.98,2.08-.04,2.48,140.98ZM226.03,191.21c.08-1.05-.45-2.04.71-2.8,1.19.71.7,1.73.81,2.77.57,5.12-.39,10.36-.49,15.48-1.19-.71-.71-1.72-.82-2.77-.35-3.34-.47-9.35-.22-12.68ZM222.46,189.75c.24-1.29,1.09-1.48,1.5-1.03.39.43.39,11.33-.55,11.41-.62.05-1.15-9.3-.94-10.38ZM213.31,217.85c-2.2,2.83-8.16,1.85-9.96-1.37-.66-1.17-.6-14.09.23-15.27,1.59-2.26,8.16-2.5,9.76.35.57,1.01.63,15.45-.03,16.29ZM230.73,213.2c0,1.91,1.2,4.89-.4,6.6-.78-2.24-.07-4.9-.12-7.1-.19-7.68-1-15.37-1.18-23.06l2.02-1.04c-.06,8.2-.29,16.41-.32,24.6ZM244.74,187.85s0,0,0,0c0,0,0,0,0,0,0,0,0,0,0,0ZM242.91,184.02l-.42,1.36c-2.22.08-5.36.42-7.17.64-.29-.1-.62-.19-1.01-.27l-1.44-1.37c-6.64,1.29-11.43-.06-14.37-4.06l-1.4-58.39c1.32-5.87,6.39-8.13,15.21-6.77l.74-1.43c.71-.1,1.29-.35,1.69-.67,1.92-.32,3.49-.34,4.8-.18.23.36.78.64,1.63.71l.47,1.6c4.54,1.38,4.85,6.61,4.73,10.62-7.89.03-12.44.36-14.07,9.25-.76,4.14-.06,30.75,1.4,33.79,2.26,4.72,9.04,4.72,13.46,4.24,1.04,1.1-.47,11.45-4.24,10.93ZM253.51,164.35c1.39,5.01-10.65,4.95-13.15,4.35-1.41-.34-2.14-.69-2.89-2.01-1.78-3.16.25-28.59-.6-34.02.68-3.02,12.75-2.58,14.01-1.73.73.5,1.4,1.19,1.83,1.97,1.84,3.32-.5,26.09.8,31.44ZM260.93,156.62c-.69,2.03-4.23,2.84-5.01,2.09-.67-.65.17-16.36-.33-18.73,2.2-.16,4.13-.58,5.08,1.91.26.69.5,14.04.26,14.73ZM301.09,146.79l-13.18.23-24.34.43-.02-1.06,23.83-.42,13.69-.24.02,1.06ZM300.55,144.77l-37.52.66-.03-1.56,37.52-.66.03,1.56Z"/>
    <path class="cls-21" d="M203.57,201.22c-.83,1.18-.88,14.1-.23,15.27,1.8,3.22,7.76,4.19,9.96,1.37.65-.84.59-15.28.03-16.29-1.6-2.85-8.18-2.61-9.76-.35ZM211.39,209.49c-1.93,1-4.1,1.04-6.08.11.03-1.14,6.03-1.24,6.08-.11Z"/>
    <path class="cls-19" d="M53.43,96.09s4.01,16.09-6.01,20.27c0,0,9.44-2.36,16.58,10.25,0,0-.7-13.57,5.37-17.17,0,0-6.58,4.06-15.94-13.34Z"/>
    <path class="cls-2" d="M83.63,183.71s6.05,15.71-3.53,21.17c0,0,9.21-3.56,17.98,8.26,0,0-2.4-13.58,3.27-17.97,0,0-6.12,4.91-17.72-11.45Z"/>
    <path class="cls-23" d="M95.62,162.58s4,10.39-2.33,14c0,0,6.09-2.35,11.89,5.46,0,0-1.59-8.98,2.16-11.89,0,0-4.05,3.25-11.72-7.58Z"/>
    <path class="cls-22" d="M143.15,164.99s7.12,14.97-1.87,21.06c0,0,8.78-4.19,18.28,6.75,0,0-3.38-13.16,1.86-17.9,0,0-5.64,5.28-18.27-9.91Z"/>
    <path class="cls-1" d="M126.14,104.05s1.8,7.46-2.85,9.36c0,0,4.38-1.06,7.64,4.8,0,0-.28-6.28,2.54-7.93,0,0-3.06,1.86-7.34-6.23Z"/>
    <path class="cls-20" d="M130.25,99.67s.91,3.77-1.44,4.73c0,0,2.21-.54,3.86,2.42,0,0-.14-3.17,1.28-4.01,0,0-1.54.94-3.7-3.14Z"/>
    <path class="cls-24" d="M152.23,147.3s4.49,9.44-1.18,13.27c0,0,5.53-2.64,11.52,4.26,0,0-2.13-8.29,1.17-11.28,0,0-3.56,3.33-11.52-6.25Z"/>
    <path class="cls-25" d="M62.86,82.13s2.53,10.14-3.79,12.77c0,0,5.95-1.49,10.45,6.46,0,0-.44-8.55,3.39-10.82,0,0-4.15,2.56-10.05-8.41Z"/>
    <g>
      <path class="cls-12" d="M406.95,71.45l-10.22,48.08h10.46c.9,0,1.5.14,1.82.41.32.27.48.66.48,1.18,0,.67-.26,1.25-.79,1.73-.53.48-1.32.72-2.38.72h-25c-.9,0-1.5-.14-1.82-.43s-.48-.69-.48-1.2c0-.64.26-1.2.79-1.68.53-.48,1.32-.72,2.38-.72h10.46l10.22-48.08h-16.51l-2.98,13.96c-.19.99-.52,1.7-.98,2.11-.46.42-1,.62-1.61.62-.48,0-.87-.15-1.18-.46-.3-.3-.46-.65-.46-1.03,0-.29.06-.7.19-1.25l3.84-17.99h45.15l-3.84,17.99c-.19.99-.53,1.7-1.01,2.11-.48.42-1.03.62-1.63.62-.45,0-.82-.15-1.13-.46-.3-.3-.46-.65-.46-1.03,0-.29.06-.7.19-1.25l2.98-13.96h-16.51Z"/>
      <path class="cls-14" d="M467.65,103.75h-41.08c-.1.99-.14,1.74-.14,2.25,0,4.38,1.49,8,4.46,10.85,2.98,2.85,7.01,4.27,12.09,4.27,2.98,0,6.21-.49,9.69-1.46,3.49-.97,6.48-2.29,8.97-3.96.74-.48,1.33-.72,1.78-.72.41,0,.77.15,1.06.46.29.3.43.7.43,1.18,0,.58-.26,1.12-.77,1.63-1.47,1.57-4.41,3.11-8.83,4.63-4.41,1.52-8.89,2.28-13.44,2.28-5.89,0-10.61-1.74-14.18-5.23-3.57-3.49-5.35-7.92-5.35-13.29,0-3.55.77-6.9,2.3-10.05,1.54-3.15,3.56-5.87,6.07-8.16,2.51-2.29,5.41-4.17,8.69-5.64,3.28-1.47,6.85-2.21,10.72-2.21,5.5,0,9.93,1.61,13.27,4.85,3.34,3.23,5.02,7.36,5.02,12.38,0,1.66-.26,3.65-.77,5.95ZM464.39,99.67c.16-4.41-1.15-8.03-3.94-10.84-2.82-2.78-6.59-4.18-11.32-4.18s-8.91,1.36-12.91,4.08c-4,2.72-6.93,6.37-8.78,10.94h36.95Z"/>
      <path class="cls-8" d="M484.02,105.62l-3.84,17.95h-9.45c-.9,0-1.5-.14-1.82-.43-.32-.29-.48-.69-.48-1.2,0-.64.26-1.2.79-1.68.53-.48,1.32-.72,2.38-.72h5.42l11.04-52.11h-5.37c-.9,0-1.5-.14-1.82-.43-.32-.29-.48-.69-.48-1.2,0-.64.26-1.21.79-1.7.53-.5,1.32-.74,2.38-.74h9.45l-7.92,37.14,20.2-14.4h-2.06c-.9,0-1.5-.14-1.82-.43s-.48-.69-.48-1.2c0-.64.26-1.21.79-1.7.53-.5,1.32-.74,2.38-.74h12.91c.9,0,1.49.13,1.78.38.38.32.58.74.58,1.25,0,.64-.27,1.21-.82,1.7-.54.5-1.34.74-2.4.74h-4.66l-18.52,13.15,15.6,20.3h4.66c.89,0,1.5.14,1.82.41.32.27.48.66.48,1.18,0,.67-.26,1.25-.79,1.73-.53.48-1.32.72-2.37.72h-13.05c-.9,0-1.5-.14-1.82-.43s-.48-.69-.48-1.2c0-.64.26-1.2.79-1.68.53-.48,1.32-.72,2.38-.72h2.78l-13.48-17.8-5.42,3.89Z"/>
      <path class="cls-9" d="M550.34,82.01l-7.97,37.53h15.84c.9,0,1.5.14,1.82.41.32.27.48.66.48,1.18,0,.67-.26,1.25-.79,1.73-.53.48-1.32.72-2.38.72h-35.7c-.9,0-1.5-.14-1.82-.43-.32-.29-.48-.69-.48-1.2,0-.64.26-1.2.79-1.68.53-.48,1.32-.72,2.38-.72h15.83l7.1-33.45h-11.76c-.9,0-1.51-.14-1.85-.43-.34-.29-.5-.69-.5-1.2,0-.64.27-1.21.82-1.7.54-.5,1.34-.74,2.4-.74h15.79ZM554.56,61.33l-2.21,10.41h-5.9l2.21-10.41h5.9Z"/>
      <path class="cls-10" d="M582.51,82.01l-1.29,6.09c3.52-2.91,6.52-4.89,9-5.95,2.48-1.06,5.16-1.58,8.04-1.58,3.97,0,7.08,1.06,9.33,3.17,2.26,2.11,3.38,4.85,3.38,8.21,0,.64-.08,1.38-.24,2.21l-5.42,25.38h3.41c.9,0,1.5.14,1.82.41.32.27.48.66.48,1.18,0,.67-.26,1.25-.79,1.73-.53.48-1.32.72-2.38.72h-10.84c-.9,0-1.5-.14-1.82-.43-.32-.29-.48-.69-.48-1.2,0-.64.26-1.2.79-1.68.53-.48,1.32-.72,2.38-.72h3.41l5.23-24.71c.16-.74.24-1.44.24-2.11,0-2.34-.82-4.26-2.45-5.78-1.63-1.52-3.97-2.28-7.01-2.28-2.78,0-5.27.56-7.46,1.68-2.19,1.12-5.5,3.76-9.91,7.92l-5.37,25.29h4.56c.89,0,1.5.14,1.82.41.32.27.48.66.48,1.18,0,.67-.26,1.25-.79,1.73-.53.48-1.32.72-2.37.72h-13.15c-.9,0-1.5-.14-1.82-.43s-.48-.69-.48-1.2c0-.64.26-1.2.79-1.68.53-.48,1.32-.72,2.38-.72h4.56l7.1-33.45h-3.41c-.9,0-1.5-.14-1.82-.43s-.48-.69-.48-1.2c0-.64.26-1.21.79-1.7.53-.5,1.32-.74,2.38-.74h7.44Z"/>
      <path class="cls-15" d="M347.98,189.39l-10.22,48.08h10.46c.9,0,1.5.14,1.82.41.32.27.48.66.48,1.17,0,.67-.26,1.25-.79,1.73-.53.48-1.32.72-2.38.72h-25c-.9,0-1.5-.14-1.82-.43-.32-.29-.48-.69-.48-1.2,0-.64.26-1.2.79-1.68.53-.48,1.32-.72,2.38-.72h10.46l10.22-48.08h-16.51l-2.98,13.96c-.19.99-.52,1.69-.98,2.11-.46.41-1,.62-1.61.62-.48,0-.87-.15-1.18-.46-.3-.3-.46-.65-.46-1.03,0-.29.06-.7.19-1.25l3.84-17.99h45.15l-3.84,17.99c-.19.99-.53,1.69-1.01,2.11-.48.41-1.03.62-1.63.62-.45,0-.82-.15-1.13-.46-.3-.3-.46-.65-.46-1.03,0-.29.06-.7.19-1.25l2.98-13.96h-16.51Z"/>
      <path class="cls-6" d="M405.71,221.68h-41.08c-.1.99-.14,1.74-.14,2.26,0,4.38,1.49,8,4.46,10.85,2.98,2.85,7.01,4.27,12.09,4.27,2.98,0,6.21-.49,9.69-1.46,3.49-.98,6.48-2.29,8.97-3.96.74-.48,1.33-.72,1.78-.72.41,0,.77.15,1.06.46s.43.7.43,1.18c0,.58-.26,1.12-.77,1.63-1.47,1.57-4.41,3.11-8.83,4.63-4.41,1.52-8.89,2.28-13.44,2.28-5.89,0-10.61-1.74-14.18-5.23-3.57-3.49-5.35-7.92-5.35-13.29,0-3.55.77-6.9,2.3-10.05,1.54-3.15,3.56-5.87,6.07-8.16,2.51-2.29,5.41-4.17,8.69-5.64,3.28-1.47,6.85-2.21,10.72-2.21,5.5,0,9.93,1.62,13.27,4.85,3.34,3.23,5.02,7.36,5.02,12.38,0,1.66-.26,3.65-.77,5.95ZM402.45,217.6c.16-4.41-1.15-8.03-3.94-10.85-2.82-2.78-6.59-4.17-11.32-4.17s-8.91,1.36-12.91,4.08c-4,2.72-6.93,6.37-8.78,10.94h36.95Z"/>
      <path class="cls-13" d="M425.05,199.94l-.86,4.08c4.19-3.68,8.04-5.52,11.56-5.52,1.92,0,3.57.56,4.94,1.68,1.38,1.12,2.37,2.78,2.98,4.99,2.27-2.24,4.45-3.91,6.53-5.01,2.08-1.1,4.06-1.66,5.95-1.66,2.37,0,4.33.81,5.9,2.43,1.57,1.61,2.35,3.7,2.35,6.26,0,.64-.1,1.34-.29,2.11l-5.95,28.17h3.36c.93,0,1.55.14,1.87.41.32.27.48.66.48,1.17,0,.67-.27,1.25-.82,1.73-.55.48-1.34.72-2.4.72h-7.44l6.77-31.81c.13-.55.19-1.09.19-1.63,0-1.69-.46-3.03-1.37-4.01-.91-.98-2.04-1.46-3.38-1.46-1.47,0-3.01.45-4.61,1.34-2.14,1.25-4.62,3.52-7.44,6.81l-5.71,26.73h3.41c.9,0,1.5.14,1.82.41.32.27.48.66.48,1.17,0,.67-.26,1.25-.79,1.73-.53.48-1.32.72-2.38.72h-7.44l6.72-31.53c.13-.64.19-1.26.19-1.87,0-1.63-.47-2.96-1.42-3.98-.94-1.02-2.04-1.54-3.29-1.54-1.44,0-2.94.43-4.51,1.29-2.27,1.31-4.85,3.6-7.72,6.86l-5.66,26.73h3.36c.93,0,1.55.14,1.87.41.32.27.48.66.48,1.17,0,.67-.27,1.25-.82,1.73-.55.48-1.34.72-2.4.72h-10.8c-.9,0-1.5-.14-1.82-.43-.32-.29-.48-.69-.48-1.2,0-.64.26-1.2.79-1.68.53-.48,1.32-.72,2.38-.72h3.36l7.15-33.45h-3.41c-.9,0-1.5-.14-1.82-.43-.32-.29-.48-.69-.48-1.2,0-.64.26-1.21.79-1.71.53-.5,1.32-.74,2.38-.74h7.44Z"/>
      <path class="cls-16" d="M499.42,199.94l-7.97,37.53h15.84c.9,0,1.5.14,1.82.41.32.27.48.66.48,1.17,0,.67-.26,1.25-.79,1.73-.53.48-1.32.72-2.38.72h-35.7c-.9,0-1.5-.14-1.82-.43-.32-.29-.48-.69-.48-1.2,0-.64.26-1.2.79-1.68.53-.48,1.32-.72,2.38-.72h15.83l7.1-33.45h-11.76c-.9,0-1.51-.14-1.85-.43-.34-.29-.5-.69-.5-1.2,0-.64.27-1.21.82-1.71.54-.5,1.34-.74,2.4-.74h15.79ZM503.64,179.26l-2.21,10.41h-5.9l2.21-10.41h5.9Z"/>
      <path class="cls-11" d="M557.46,199.94l-.77,3.6-37.38,33.93h27.26l1.2-5.57c.19-.96.52-1.65.98-2.06.46-.41,1-.62,1.61-.62.48,0,.87.14,1.18.43.3.29.46.62.46,1.01,0,.32-.07.74-.19,1.25l-2.06,9.6h-36.85l.77-3.6,37.28-33.88h-25.1l-1.15,5.47c-.22.99-.57,1.69-1.03,2.09-.46.4-1,.6-1.61.6-.45,0-.82-.14-1.13-.43-.3-.29-.46-.63-.46-1.01,0-.29.05-.7.14-1.25l2.06-9.55h34.79Z"/>
      <path class="cls-17" d="M589.54,181.28l-11.95,56.19h15.83c.9,0,1.5.14,1.82.41.32.27.48.66.48,1.17,0,.67-.26,1.25-.79,1.73-.53.48-1.32.72-2.38.72h-35.7c-.9,0-1.5-.14-1.82-.43-.32-.29-.48-.69-.48-1.2,0-.64.26-1.2.79-1.68.53-.48,1.32-.72,2.37-.72h15.84l11.09-52.11h-11.66c-.9,0-1.5-.14-1.82-.43-.32-.29-.48-.69-.48-1.2,0-.64.26-1.21.79-1.7.53-.5,1.32-.75,2.38-.75h15.69Z"/>
      <path class="cls-4" d="M629.53,199.94l-7.97,37.53h15.84c.9,0,1.5.14,1.82.41.32.27.48.66.48,1.17,0,.67-.26,1.25-.79,1.73-.53.48-1.32.72-2.38.72h-35.7c-.9,0-1.5-.14-1.82-.43-.32-.29-.48-.69-.48-1.2,0-.64.26-1.2.79-1.68.53-.48,1.32-.72,2.38-.72h15.83l7.1-33.45h-11.76c-.9,0-1.51-.14-1.85-.43-.34-.29-.5-.69-.5-1.2,0-.64.27-1.21.82-1.71.54-.5,1.34-.74,2.4-.74h15.79ZM633.75,179.26l-2.21,10.41h-5.9l2.21-10.41h5.9Z"/>
      <path class="cls-7" d="M655.3,223.55l-3.84,17.95h-9.45c-.9,0-1.5-.14-1.82-.43-.32-.29-.48-.69-.48-1.2,0-.64.26-1.2.79-1.68.53-.48,1.32-.72,2.38-.72h5.42l11.04-52.11h-5.37c-.9,0-1.5-.14-1.82-.43-.32-.29-.48-.69-.48-1.2,0-.64.26-1.21.79-1.7.53-.5,1.32-.75,2.38-.75h9.45l-7.92,37.14,20.2-14.4h-2.06c-.9,0-1.5-.14-1.82-.43-.32-.29-.48-.69-.48-1.2,0-.64.26-1.21.79-1.71.53-.5,1.32-.74,2.38-.74h12.91c.89,0,1.49.13,1.77.38.38.32.58.74.58,1.25,0,.64-.27,1.21-.82,1.71-.55.5-1.34.74-2.4.74h-4.65l-18.52,13.15,15.59,20.3h4.66c.9,0,1.5.14,1.82.41.32.27.48.66.48,1.17,0,.67-.26,1.25-.79,1.73-.53.48-1.32.72-2.38.72h-13.05c-.9,0-1.5-.14-1.82-.43-.32-.29-.48-.69-.48-1.2,0-.64.26-1.2.79-1.68.53-.48,1.32-.72,2.38-.72h2.78l-13.48-17.8-5.42,3.89Z"/>
    </g>
  </g>
</svg>