<?xml version="1.0" encoding="UTF-8"?>
<svg id="katman_2" data-name="katman 2" xmlns="http://www.w3.org/2000/svg" xmlns:xlink="http://www.w3.org/1999/xlink" viewBox="0 0 589.74 262.36">
  <defs>
    <style>
      .cls-1 {
        fill: url(#Turuncu_Sarı-5);
      }

      .cls-2 {
        fill: url(#Turuncu_Sarı-2);
      }

      .cls-3 {
        fill: url(#Beyaz_Siyah_2);
      }

      .cls-4 {
        filter: url(#drop-shadow-12);
      }

      .cls-4, .cls-5, .cls-6, .cls-7, .cls-8, .cls-9, .cls-10, .cls-11, .cls-12, .cls-13, .cls-14, .cls-15, .cls-16 {
        fill: #fff;
      }

      .cls-5 {
        filter: url(#drop-shadow-7);
      }

      .cls-6 {
        filter: url(#drop-shadow-13);
      }

      .cls-7 {
        filter: url(#drop-shadow-3);
      }

      .cls-8 {
        filter: url(#drop-shadow-4);
      }

      .cls-17 {
        fill: url(#Turuncu_Sarı);
      }

      .cls-9 {
        filter: url(#drop-shadow-5);
      }

      .cls-10 {
        filter: url(#drop-shadow-10);
      }

      .cls-11 {
        filter: url(#drop-shadow-1);
      }

      .cls-18 {
        fill: url(#Turuncu_Sarı-6);
      }

      .cls-19 {
        opacity: .97;
        stroke: #1d1d1b;
        stroke-miterlimit: 10;
        stroke-width: .25px;
      }

      .cls-19, .cls-20 {
        fill: #1d1d1b;
      }

      .cls-12 {
        filter: url(#drop-shadow-8);
      }

      .cls-13 {
        filter: url(#drop-shadow-2);
      }

      .cls-14 {
        filter: url(#drop-shadow-6);
      }

      .cls-15 {
        filter: url(#drop-shadow-9);
      }

      .cls-21 {
        fill: url(#Turuncu_Sarı-4);
      }

      .cls-22 {
        fill: url(#Turuncu_Sarı-3);
      }

      .cls-23 {
        fill: url(#Turuncu_Sarı-7);
      }

      .cls-16 {
        filter: url(#drop-shadow-11);
      }

      .cls-24 {
        fill: url(#Turuncu_Sarı-8);
      }
    </style>
    <linearGradient id="Beyaz_Siyah_2" data-name="Beyaz, Siyah 2" x1="-97.06" y1="80.87" x2="39.72" y2="80.87" gradientTransform="translate(117.46 52.91) rotate(-46.01)" gradientUnits="userSpaceOnUse">
      <stop offset="0" stop-color="#fff"/>
      <stop offset="1" stop-color="#1d1d1b"/>
    </linearGradient>
    <linearGradient id="Turuncu_Sarı" data-name="Turuncu, Sarı" x1="183.74" y1="28.99" x2="200.97" y2="28.99" gradientTransform="translate(-154.4 27) rotate(12.2)" gradientUnits="userSpaceOnUse">
      <stop offset="0" stop-color="#ffef26"/>
      <stop offset=".02" stop-color="#fee921"/>
      <stop offset=".1" stop-color="#fdd70e"/>
      <stop offset=".19" stop-color="#fdcb03"/>
      <stop offset=".28" stop-color="#fdc800"/>
      <stop offset=".67" stop-color="#f18f34"/>
      <stop offset=".89" stop-color="#e95f32"/>
      <stop offset="1" stop-color="#e3312d"/>
    </linearGradient>
    <linearGradient id="Turuncu_Sarı-2" data-name="Turuncu, Sarı" x1="58.9" y1="30.99" x2="76.39" y2="30.99" gradientTransform="translate(-9.41 134.09) rotate(5.14)" xlink:href="#Turuncu_Sarı"/>
    <linearGradient id="Turuncu_Sarı-3" data-name="Turuncu, Sarı" x1="68.03" y1="7.84" x2="79.6" y2="7.84" gradientTransform="translate(-9.41 134.09) rotate(5.14)" xlink:href="#Turuncu_Sarı"/>
    <linearGradient id="Turuncu_Sarı-4" data-name="Turuncu, Sarı" x1="45.03" y1="128.96" x2="62.26" y2="128.96" gradientTransform="translate(55.37 24.54) rotate(.75)" xlink:href="#Turuncu_Sarı"/>
    <linearGradient id="Turuncu_Sarı-5" data-name="Turuncu, Sarı" x1="199.82" y1="127.69" x2="207.8" y2="127.69" gradientTransform="translate(-83.42 -73.27) rotate(12.59)" xlink:href="#Turuncu_Sarı"/>
    <linearGradient id="Turuncu_Sarı-6" data-name="Turuncu, Sarı" x1="202.77" y1="120.52" x2="206.79" y2="120.52" gradientTransform="translate(-83.42 -73.27) rotate(12.59)" xlink:href="#Turuncu_Sarı"/>
    <linearGradient id="Turuncu_Sarı-7" data-name="Turuncu, Sarı" x1="53.16" y1="109.22" x2="64.01" y2="109.22" gradientTransform="translate(55.37 24.54) rotate(.75)" xlink:href="#Turuncu_Sarı"/>
    <linearGradient id="Turuncu_Sarı-8" data-name="Turuncu, Sarı" x1="189.65" y1="11.12" x2="200.51" y2="11.12" xlink:href="#Turuncu_Sarı"/>
    <filter id="drop-shadow-1" x="295.74" y="48.55" width="68" height="73" filterUnits="userSpaceOnUse">
      <feOffset dx="5" dy="3"/>
      <feGaussianBlur result="blur" stdDeviation="4"/>
      <feFlood flood-color="#000" flood-opacity="1"/>
      <feComposite in2="blur" operator="in"/>
      <feComposite in="SourceGraphic"/>
    </filter>
    <filter id="drop-shadow-2" x="333.74" y="59.55" width="64" height="64" filterUnits="userSpaceOnUse">
      <feOffset dx="5" dy="3"/>
      <feGaussianBlur result="blur-2" stdDeviation="4"/>
      <feFlood flood-color="#000" flood-opacity="1"/>
      <feComposite in2="blur-2" operator="in"/>
      <feComposite in="SourceGraphic"/>
    </filter>
    <filter id="drop-shadow-3" x="372.74" y="45.55" width="69" height="76" filterUnits="userSpaceOnUse">
      <feOffset dx="5" dy="3"/>
      <feGaussianBlur result="blur-3" stdDeviation="4"/>
      <feFlood flood-color="#000" flood-opacity="1"/>
      <feComposite in2="blur-3" operator="in"/>
      <feComposite in="SourceGraphic"/>
    </filter>
    <filter id="drop-shadow-4" x="416.74" y="43.55" width="61" height="78" filterUnits="userSpaceOnUse">
      <feOffset dx="5" dy="3"/>
      <feGaussianBlur result="blur-4" stdDeviation="4"/>
      <feFlood flood-color="#000" flood-opacity="1"/>
      <feComposite in2="blur-4" operator="in"/>
      <feComposite in="SourceGraphic"/>
    </filter>
    <filter id="drop-shadow-5" x="454.74" y="59.55" width="66" height="62" filterUnits="userSpaceOnUse">
      <feOffset dx="5" dy="3"/>
      <feGaussianBlur result="blur-5" stdDeviation="4"/>
      <feFlood flood-color="#000" flood-opacity="1"/>
      <feComposite in2="blur-5" operator="in"/>
      <feComposite in="SourceGraphic"/>
    </filter>
    <filter id="drop-shadow-6" x="244.74" y="150.55" width="68" height="73" filterUnits="userSpaceOnUse">
      <feOffset dx="5" dy="3"/>
      <feGaussianBlur result="blur-6" stdDeviation="4"/>
      <feFlood flood-color="#000" flood-opacity="1"/>
      <feComposite in2="blur-6" operator="in"/>
      <feComposite in="SourceGraphic"/>
    </filter>
    <filter id="drop-shadow-7" x="279.74" y="161.55" width="65" height="63" filterUnits="userSpaceOnUse">
      <feOffset dx="5" dy="3"/>
      <feGaussianBlur result="blur-7" stdDeviation="4"/>
      <feFlood flood-color="#000" flood-opacity="1"/>
      <feComposite in2="blur-7" operator="in"/>
      <feComposite in="SourceGraphic"/>
    </filter>
    <filter id="drop-shadow-8" x="319.74" y="161.55" width="75" height="62" filterUnits="userSpaceOnUse">
      <feOffset dx="5" dy="3"/>
      <feGaussianBlur result="blur-8" stdDeviation="4"/>
      <feFlood flood-color="#000" flood-opacity="1"/>
      <feComposite in2="blur-8" operator="in"/>
      <feComposite in="SourceGraphic"/>
    </filter>
    <filter id="drop-shadow-9" x="372.74" y="144.55" width="61" height="79" filterUnits="userSpaceOnUse">
      <feOffset dx="5" dy="3"/>
      <feGaussianBlur result="blur-9" stdDeviation="4"/>
      <feFlood flood-color="#000" flood-opacity="1"/>
      <feComposite in2="blur-9" operator="in"/>
      <feComposite in="SourceGraphic"/>
    </filter>
    <filter id="drop-shadow-10" x="411.74" y="162.55" width="63" height="61" filterUnits="userSpaceOnUse">
      <feOffset dx="5" dy="3"/>
      <feGaussianBlur result="blur-10" stdDeviation="4"/>
      <feFlood flood-color="#000" flood-opacity="1"/>
      <feComposite in2="blur-10" operator="in"/>
      <feComposite in="SourceGraphic"/>
    </filter>
    <filter id="drop-shadow-11" x="447.74" y="146.55" width="60" height="77" filterUnits="userSpaceOnUse">
      <feOffset dx="5" dy="3"/>
      <feGaussianBlur result="blur-11" stdDeviation="4"/>
      <feFlood flood-color="#000" flood-opacity="1"/>
      <feComposite in2="blur-11" operator="in"/>
      <feComposite in="SourceGraphic"/>
    </filter>
    <filter id="drop-shadow-12" x="484.74" y="144.55" width="61" height="79" filterUnits="userSpaceOnUse">
      <feOffset dx="5" dy="3"/>
      <feGaussianBlur result="blur-12" stdDeviation="4"/>
      <feFlood flood-color="#000" flood-opacity="1"/>
      <feComposite in2="blur-12" operator="in"/>
      <feComposite in="SourceGraphic"/>
    </filter>
    <filter id="drop-shadow-13" x="520.74" y="146.55" width="69" height="77" filterUnits="userSpaceOnUse">
      <feOffset dx="5" dy="3"/>
      <feGaussianBlur result="blur-13" stdDeviation="4"/>
      <feFlood flood-color="#000" flood-opacity="1"/>
      <feComposite in2="blur-13" operator="in"/>
      <feComposite in="SourceGraphic"/>
    </filter>
  </defs>
  <g id="katman_1" data-name="katman 1">
    <path class="cls-19" d="M198.98,36.89C146.91-13.38,63.94-11.92,13.67,40.16c-4.92,5.1-9.47,9.67-13.43,15.09,1.2.05,2.39.12,3.59.18l129.77-1.18,3.43,151.84-136.2-.09c5.32,8.18,8.79,12.42,16.1,19.48,52.07,50.27,135.04,48.81,185.31-3.26,50.27-52.07,48.81-135.04-3.26-185.31Z"/>
    <path class="cls-3" d="M233.84,114.64c.18,1.35.34,2.7.48,4.05l-29.86.57c-1.86-1.73-3.93-2.59-6.23-2.57.72-3.99-1.33-5.78-4.52-7.77l.04-3.55c-.07-.13-.14-.26-.2-.4-.78-1.83-1.35-3.78-1.6-5.76-1.12-3.62-3.39-8.87-5.23-9.05l-1.08.61c-2.53-1.02-5.07-.93-6.99-.58-.37-7.65.03-15.36-.4-23-.08-1.46-.9-2.85-.79-4.02-.38-1.09-.79-2.18-1.17-3.27-3.04-2.96-5.14-6.04-10.1-6.87-5.39-.91-12.91.16-18.36.29-5.75.14-15.79-2.44-16.96,5.08,1.11,48.2,1.18,96.52,2.94,144.66,1.32,2.47,2.8,3.09,5.35,3.42,4.38.57,27.93-.15,31.45-1.56,15.3-6.13,7.68-24.48,9.84-36.62.32-.21.69-.33,1.07-.4,2.11.53,4.13.4,5.72.1,2.64.06,4.17-3.97,4.43-6.8,2.71-3.81,3.41-6.87,2.73-11.65,3.26-2.5,4.69-5.49,4.31-8.98,2.24.28,4.33-.63,6.25-2.73l27.81-.42s-.04.03-.06.05c.64.1,1.24.41,1.72.86.2.11.4.25.58.41.58.51.93,1.41.94,2.17,0,.52-.13,1.07-.39,1.55.06.15.11.3.15.45,0,0,.02,0,.03,0,.9,1.68,1.9,1.29,2.34-.46,1.13-9.72.93-19.38-.5-28.76-1.26.29-2.52.6-3.77.95ZM173.13,74.27c.06-.91-.38-1.76.62-2.41-.17,7.09,1.32,15.11,1.04,22.06-.13,3.25-2.05,1.99-1.76-.41.63-6.26-.32-13.11.1-19.24ZM170.83,80.22c.23,4.4,1.23,8.89.89,13.31-.23,2.92-1.39,3.28-1.55.45-.17-3.03-.17-8.33.04-11.35.06-.9-.38-1.76.62-2.41ZM167.37,94.92c-.2-.9.05-8.99.5-8.97.81.04,1.14,9.43.82,9.81-.34.4-1.07.26-1.32-.84ZM138.92,190.95l-1.79.03-2.14-121.49,1.79-.03,2.14,121.49ZM171.66,164.8c.07-.9-.38-1.76.61-2.41,1.02.62.6,1.49.7,2.39.49,4.41-.33,8.93-.42,13.34-1.02-.61-.61-1.49-.7-2.39-.3-2.88-.41-8.06-.19-10.93ZM168.58,163.54c.21-1.11.94-1.28,1.29-.89.33.37.33,9.76-.48,9.83-.53.04-.99-8.02-.81-8.95ZM160.7,187.75c-1.9,2.44-7.03,1.59-8.58-1.18-.57-1.01-.52-12.14.19-13.16,1.37-1.95,7.03-2.15,8.41.3.49.87.54,13.31-.02,14.04ZM175.71,183.75c0,1.65,1.03,4.21-.34,5.69-.67-1.93-.06-4.22-.1-6.11-.17-6.62-.86-13.25-1.02-19.88l1.74-.89c-.05,7.06-.25,14.14-.27,21.2ZM187.78,161.9s0,0,0,0c0,0,0,0,0,0,0,0,0,0,0,0ZM186.21,158.6l-.36,1.17c-1.91.07-4.62.36-6.18.55-.25-.08-.53-.16-.87-.23l-1.25-1.18c-5.72,1.11-9.85-.05-12.39-3.5l-1.21-50.32c1.14-5.06,5.51-7.01,13.11-5.83l.64-1.23c.61-.09,1.11-.3,1.46-.58,1.65-.28,3.01-.3,4.13-.16.2.31.67.55,1.41.61l.41,1.38c3.91,1.19,4.18,5.7,4.08,9.15-6.8.02-10.72.31-12.12,7.97-.65,3.57-.05,26.5,1.2,29.12,1.94,4.07,7.79,4.07,11.6,3.66.9.95-.4,9.87-3.65,9.42ZM195.34,141.64c1.2,4.32-9.18,4.27-11.34,3.75-1.21-.29-1.85-.59-2.49-1.73-1.53-2.72.21-24.63-.52-29.32.59-2.6,10.99-2.22,12.07-1.49.63.43,1.2,1.03,1.58,1.7,1.59,2.86-.43,22.49.69,27.1ZM201.74,134.99c-.6,1.75-3.65,2.45-4.32,1.8-.58-.56.14-14.09-.28-16.14,1.89-.14,3.56-.5,4.38,1.65.23.59.43,12.1.22,12.7ZM236.35,126.52l-11.36.2-20.97.37-.02-.92,20.54-.36,11.8-.21.02.92ZM235.88,124.78l-32.33.57-.02-1.34,32.33-.57.02,1.34Z"/>
    <path class="cls-20" d="M152.31,173.42c-.71,1.02-.76,12.15-.19,13.16,1.55,2.77,6.69,3.61,8.58,1.18.56-.72.51-13.17.02-14.04-1.38-2.45-7.05-2.25-8.41-.3ZM159.04,180.55c-1.66.86-3.54.9-5.24.09.02-.99,5.19-1.07,5.24-.09Z"/>
    <path class="cls-17" d="M22.92,82.82s3.45,13.87-5.18,17.47c0,0,8.13-2.03,14.29,8.83,0,0-.6-11.69,4.63-14.8,0,0-5.67,3.5-13.74-11.5Z"/>
    <path class="cls-2" d="M48.94,158.33s5.21,13.54-3.04,18.24c0,0,7.94-3.06,15.49,7.11,0,0-2.07-11.7,2.82-15.48,0,0-5.27,4.23-15.27-9.87Z"/>
    <path class="cls-22" d="M59.27,140.12s3.45,8.95-2.01,12.07c0,0,5.25-2.03,10.25,4.71,0,0-1.37-7.74,1.86-10.24,0,0-3.49,2.8-10.1-6.53Z"/>
    <path class="cls-21" d="M100.24,142.2s6.14,12.9-1.61,18.15c0,0,7.57-3.61,15.76,5.82,0,0-2.91-11.34,1.6-15.42,0,0-4.86,4.55-15.75-8.54Z"/>
    <path class="cls-1" d="M85.58,89.68s1.56,6.43-2.45,8.07c0,0,3.77-.92,6.59,4.13,0,0-.24-5.42,2.19-6.84,0,0-2.64,1.6-6.32-5.37Z"/>
    <path class="cls-18" d="M89.12,85.91s.79,3.25-1.24,4.07c0,0,1.9-.46,3.33,2.09,0,0-.12-2.73,1.11-3.45,0,0-1.33.81-3.19-2.71Z"/>
    <path class="cls-23" d="M108.06,126.96s3.87,8.13-1.01,11.44c0,0,4.77-2.27,9.93,3.67,0,0-1.84-7.15,1.01-9.72,0,0-3.06,2.87-9.92-5.38Z"/>
    <path class="cls-24" d="M31.05,70.8s2.18,8.74-3.26,11.01c0,0,5.13-1.28,9,5.57,0,0-.38-7.37,2.92-9.33,0,0-3.57,2.2-8.66-7.25Z"/>
    <g>
      <path class="cls-11" d="M327.57,61.59l-8.81,41.44h9.01c.77,0,1.3.12,1.57.35.28.23.41.57.41,1.01,0,.58-.23,1.08-.68,1.49-.45.41-1.14.62-2.05.62h-21.54c-.77,0-1.3-.12-1.57-.37s-.41-.59-.41-1.03c0-.55.23-1.03.68-1.45.46-.41,1.14-.62,2.05-.62h9.01l8.81-41.44h-14.22l-2.56,12.03c-.17.86-.45,1.46-.85,1.82-.4.36-.86.54-1.39.54-.41,0-.75-.13-1.01-.39-.26-.26-.39-.56-.39-.89,0-.25.06-.61.17-1.08l3.31-15.51h38.91l-3.31,15.51c-.17.86-.45,1.46-.87,1.82-.41.36-.88.54-1.41.54-.39,0-.71-.13-.97-.39-.26-.26-.39-.56-.39-.89,0-.25.06-.61.17-1.08l2.56-12.03h-14.22Z"/>
      <path class="cls-13" d="M379.88,89.42h-35.4c-.08.85-.12,1.5-.12,1.94,0,3.78,1.28,6.89,3.85,9.35,2.56,2.45,6.04,3.68,10.42,3.68,2.56,0,5.35-.42,8.35-1.26,3-.84,5.58-1.98,7.73-3.41.63-.41,1.14-.62,1.53-.62.36,0,.66.13.91.39.25.26.37.6.37,1.01,0,.5-.22.97-.66,1.41-1.27,1.35-3.8,2.68-7.61,3.99-3.8,1.31-7.66,1.96-11.58,1.96-5.07,0-9.15-1.5-12.22-4.51-3.07-3-4.61-6.82-4.61-11.45,0-3.06.66-5.95,1.98-8.66,1.32-2.71,3.07-5.06,5.23-7.03,2.16-1.97,4.66-3.59,7.49-4.86,2.83-1.27,5.91-1.9,9.24-1.9,4.74,0,8.55,1.39,11.43,4.18,2.88,2.79,4.32,6.34,4.32,10.67,0,1.43-.22,3.14-.66,5.13ZM377.07,85.91c.14-3.8-.99-6.92-3.39-9.35-2.43-2.4-5.68-3.6-9.76-3.6s-7.68,1.17-11.12,3.52c-3.45,2.34-5.97,5.49-7.57,9.43h31.84Z"/>
      <path class="cls-7" d="M393.98,91.04l-3.31,15.47h-8.15c-.77,0-1.3-.12-1.57-.37-.28-.25-.41-.59-.41-1.03,0-.55.23-1.03.68-1.45.45-.41,1.14-.62,2.05-.62h4.67l9.51-44.91h-4.63c-.77,0-1.3-.12-1.57-.37-.28-.25-.41-.59-.41-1.03,0-.55.23-1.04.68-1.47.45-.43,1.14-.64,2.05-.64h8.15l-6.82,32.01,17.41-12.41h-1.78c-.77,0-1.3-.12-1.57-.37s-.41-.59-.41-1.03c0-.55.23-1.04.68-1.47.46-.43,1.14-.64,2.05-.64h11.12c.77,0,1.28.11,1.53.33.33.28.5.63.5,1.08,0,.55-.23,1.04-.7,1.47-.47.43-1.16.64-2.07.64h-4.01l-15.96,11.33,13.44,17.49h4.01c.77,0,1.29.12,1.57.35.27.23.41.57.41,1.01,0,.58-.23,1.08-.68,1.49-.45.41-1.14.62-2.05.62h-11.25c-.77,0-1.3-.12-1.57-.37s-.41-.59-.41-1.03c0-.55.23-1.03.68-1.45.46-.41,1.14-.62,2.05-.62h2.4l-11.62-15.34-4.67,3.35Z"/>
      <path class="cls-8" d="M451.13,70.69l-6.87,32.34h13.65c.77,0,1.3.12,1.57.35.28.23.41.57.41,1.01,0,.58-.23,1.08-.68,1.49-.46.41-1.14.62-2.05.62h-30.77c-.77,0-1.3-.12-1.57-.37-.28-.25-.41-.59-.41-1.03,0-.55.23-1.03.68-1.45.46-.41,1.14-.62,2.05-.62h13.65l6.12-28.82h-10.13c-.77,0-1.3-.12-1.59-.37-.29-.25-.43-.59-.43-1.03,0-.55.23-1.04.7-1.47.47-.43,1.16-.64,2.07-.64h13.61ZM454.77,52.87l-1.9,8.97h-5.09l1.9-8.97h5.09Z"/>
      <path class="cls-9" d="M478.86,70.69l-1.12,5.25c3.03-2.51,5.62-4.22,7.75-5.13,2.14-.91,4.45-1.36,6.93-1.36,3.42,0,6.1.91,8.04,2.73,1.94,1.82,2.92,4.18,2.92,7.07,0,.55-.07,1.19-.21,1.9l-4.67,21.88h2.94c.77,0,1.3.12,1.57.35.28.23.41.57.41,1.01,0,.58-.23,1.08-.68,1.49-.46.41-1.14.62-2.05.62h-9.35c-.77,0-1.3-.12-1.57-.37-.28-.25-.41-.59-.41-1.03,0-.55.23-1.03.68-1.45.45-.41,1.14-.62,2.05-.62h2.94l4.51-21.3c.14-.63.21-1.24.21-1.82,0-2.01-.7-3.67-2.11-4.98-1.41-1.31-3.42-1.96-6.04-1.96-2.4,0-4.54.48-6.43,1.45-1.89.96-4.74,3.24-8.54,6.82l-4.63,21.79h3.93c.77,0,1.3.12,1.57.35.27.23.41.57.41,1.01,0,.58-.23,1.08-.68,1.49-.45.41-1.14.62-2.05.62h-11.33c-.77,0-1.3-.12-1.57-.37s-.41-.59-.41-1.03c0-.55.23-1.03.68-1.45.46-.41,1.14-.62,2.05-.62h3.93l6.12-28.82h-2.94c-.77,0-1.3-.12-1.57-.37s-.41-.59-.41-1.03c0-.55.23-1.04.68-1.47.45-.43,1.14-.64,2.05-.64h6.41Z"/>
      <path class="cls-14" d="M276.75,163.22l-8.81,41.44h9.01c.77,0,1.3.12,1.57.35.28.23.41.57.41,1.01,0,.58-.23,1.08-.68,1.49-.45.41-1.14.62-2.05.62h-21.54c-.77,0-1.3-.12-1.57-.37-.28-.25-.41-.59-.41-1.04,0-.55.23-1.03.68-1.45.46-.41,1.14-.62,2.05-.62h9.01l8.81-41.44h-14.22l-2.56,12.03c-.17.85-.45,1.46-.85,1.82-.4.36-.86.54-1.39.54-.41,0-.75-.13-1.01-.39-.26-.26-.39-.56-.39-.89,0-.25.06-.61.17-1.07l3.31-15.51h38.91l-3.31,15.51c-.17.85-.45,1.46-.87,1.82-.41.36-.88.54-1.41.54-.39,0-.71-.13-.97-.39-.26-.26-.39-.56-.39-.89,0-.25.06-.61.17-1.07l2.56-12.03h-14.22Z"/>
      <path class="cls-5" d="M326.5,191.05h-35.4c-.08.86-.12,1.5-.12,1.94,0,3.78,1.28,6.89,3.85,9.35,2.56,2.45,6.04,3.68,10.42,3.68,2.56,0,5.35-.42,8.35-1.26,3-.84,5.58-1.98,7.73-3.41.63-.41,1.14-.62,1.53-.62.36,0,.66.13.91.39s.37.6.37,1.01c0,.5-.22.96-.66,1.4-1.27,1.35-3.8,2.68-7.61,3.99-3.8,1.31-7.66,1.96-11.58,1.96-5.07,0-9.15-1.5-12.22-4.51-3.07-3-4.61-6.82-4.61-11.46,0-3.06.66-5.95,1.98-8.66,1.32-2.71,3.07-5.06,5.23-7.03,2.16-1.97,4.66-3.59,7.49-4.86,2.83-1.27,5.91-1.9,9.24-1.9,4.74,0,8.55,1.39,11.43,4.18,2.88,2.78,4.32,6.34,4.32,10.67,0,1.43-.22,3.14-.66,5.13ZM323.69,187.54c.14-3.8-.99-6.92-3.39-9.35-2.43-2.4-5.68-3.6-9.76-3.6s-7.68,1.17-11.12,3.51c-3.45,2.34-5.97,5.49-7.57,9.43h31.84Z"/>
      <path class="cls-12" d="M343.17,172.32l-.74,3.51c3.61-3.17,6.93-4.76,9.97-4.76,1.65,0,3.07.48,4.26,1.45,1.19.97,2.04,2.4,2.56,4.3,1.96-1.93,3.83-3.37,5.62-4.32,1.79-.95,3.5-1.43,5.13-1.43,2.04,0,3.73.7,5.09,2.09,1.35,1.39,2.03,3.19,2.03,5.4,0,.55-.08,1.16-.25,1.82l-5.13,24.27h2.89c.8,0,1.34.12,1.61.35.28.23.41.57.41,1.01,0,.58-.23,1.08-.7,1.49-.47.41-1.16.62-2.07.62h-6.41l5.83-27.42c.11-.47.17-.94.17-1.41,0-1.46-.39-2.61-1.18-3.45-.79-.84-1.76-1.26-2.91-1.26-1.27,0-2.59.39-3.97,1.16-1.85,1.07-3.98,3.03-6.41,5.87l-4.92,23.03h2.94c.77,0,1.3.12,1.57.35.28.23.41.57.41,1.01,0,.58-.23,1.08-.68,1.49-.46.41-1.14.62-2.05.62h-6.41l5.79-27.17c.11-.55.17-1.09.17-1.61,0-1.4-.41-2.55-1.22-3.43-.81-.88-1.76-1.32-2.83-1.32-1.24,0-2.54.37-3.89,1.11-1.96,1.13-4.18,3.1-6.66,5.91l-4.88,23.03h2.89c.8,0,1.34.12,1.61.35.28.23.41.57.41,1.01,0,.58-.23,1.08-.7,1.49-.47.41-1.16.62-2.07.62h-9.3c-.77,0-1.3-.12-1.57-.37-.28-.25-.41-.59-.41-1.04,0-.55.23-1.03.68-1.45.45-.41,1.14-.62,2.05-.62h2.89l6.16-28.82h-2.94c-.77,0-1.3-.12-1.57-.37-.28-.25-.41-.59-.41-1.03,0-.55.23-1.04.68-1.47.46-.43,1.14-.64,2.05-.64h6.41Z"/>
      <path class="cls-15" d="M407.26,172.32l-6.87,32.34h13.65c.77,0,1.3.12,1.57.35.28.23.41.57.41,1.01,0,.58-.23,1.08-.68,1.49-.46.41-1.14.62-2.05.62h-30.77c-.77,0-1.3-.12-1.57-.37-.28-.25-.41-.59-.41-1.04,0-.55.23-1.03.68-1.45.46-.41,1.14-.62,2.05-.62h13.65l6.12-28.82h-10.13c-.77,0-1.3-.12-1.59-.37-.29-.25-.43-.59-.43-1.03,0-.55.23-1.04.7-1.47.47-.43,1.16-.64,2.07-.64h13.61ZM410.9,154.5l-1.9,8.97h-5.09l1.9-8.97h5.09Z"/>
      <path class="cls-10" d="M457.28,172.32l-.66,3.1-32.21,29.24h23.49l1.03-4.8c.17-.83.45-1.42.85-1.78.4-.36.86-.54,1.38-.54.41,0,.75.12,1.01.37.26.25.39.54.39.87,0,.28-.06.64-.17,1.08l-1.78,8.27h-31.76l.66-3.1,32.13-29.2h-21.63l-.99,4.72c-.19.85-.49,1.46-.89,1.8-.4.35-.86.52-1.38.52-.39,0-.71-.12-.97-.37-.26-.25-.39-.54-.39-.87,0-.25.04-.61.12-1.07l1.78-8.23h29.98Z"/>
      <path class="cls-16" d="M484.92,156.23l-10.3,48.42h13.65c.77,0,1.3.12,1.57.35.27.23.41.57.41,1.01,0,.58-.23,1.08-.68,1.49-.45.41-1.14.62-2.05.62h-30.77c-.77,0-1.3-.12-1.57-.37-.28-.25-.41-.59-.41-1.04,0-.55.23-1.03.68-1.45.45-.41,1.14-.62,2.05-.62h13.65l9.55-44.91h-10.05c-.77,0-1.3-.12-1.57-.37-.28-.25-.41-.59-.41-1.03,0-.55.23-1.04.68-1.47.46-.43,1.14-.64,2.05-.64h13.52Z"/>
      <path class="cls-4" d="M519.38,172.32l-6.87,32.34h13.65c.77,0,1.3.12,1.57.35.28.23.41.57.41,1.01,0,.58-.23,1.08-.68,1.49-.46.41-1.14.62-2.05.62h-30.77c-.77,0-1.3-.12-1.57-.37-.28-.25-.41-.59-.41-1.04,0-.55.23-1.03.68-1.45.46-.41,1.14-.62,2.05-.62h13.65l6.12-28.82h-10.13c-.77,0-1.3-.12-1.59-.37-.29-.25-.43-.59-.43-1.03,0-.55.23-1.04.7-1.47.47-.43,1.16-.64,2.07-.64h13.61ZM523.02,154.5l-1.9,8.97h-5.09l1.9-8.97h5.09Z"/>
      <path class="cls-6" d="M541.59,192.66l-3.31,15.47h-8.15c-.77,0-1.3-.12-1.57-.37-.28-.25-.41-.59-.41-1.04,0-.55.23-1.03.68-1.45.45-.41,1.14-.62,2.05-.62h4.67l9.51-44.91h-4.63c-.77,0-1.3-.12-1.57-.37-.28-.25-.41-.59-.41-1.03,0-.55.23-1.04.68-1.47.45-.43,1.14-.64,2.05-.64h8.15l-6.82,32.01,17.41-12.41h-1.78c-.77,0-1.3-.12-1.57-.37-.28-.25-.41-.59-.41-1.03,0-.55.23-1.04.68-1.47.46-.43,1.14-.64,2.05-.64h11.12c.77,0,1.28.11,1.53.33.33.28.5.64.5,1.07,0,.55-.23,1.04-.7,1.47-.47.43-1.16.64-2.07.64h-4.01l-15.96,11.33,13.44,17.49h4.01c.77,0,1.29.12,1.57.35.28.23.41.57.41,1.01,0,.58-.23,1.08-.68,1.49-.46.41-1.14.62-2.05.62h-11.25c-.77,0-1.3-.12-1.57-.37-.28-.25-.41-.59-.41-1.04,0-.55.23-1.03.68-1.45.45-.41,1.14-.62,2.05-.62h2.4l-11.62-15.34-4.67,3.35Z"/>
    </g>
  </g>
</svg>